<?xml version="1.0" encoding="UTF-8" standalone="no"?>
<svg
   width="8.5in"
   height="11in"
   viewBox="0 0 816 1056"
   version="1.1"
   xml:space="preserve"
   style="clip-rule:evenodd;fill-rule:evenodd;stroke-miterlimit:10"
   id="svg85"
   sodipodi:docname="OT-2-deck-step2.svg"
   inkscape:version="1.4 (e7c3feb100, 2024-10-09)"
   inkscape:export-filename="OT-2-deck-step3.png"
   inkscape:export-xdpi="300"
   inkscape:export-ydpi="300"
   xmlns:inkscape="http://www.inkscape.org/namespaces/inkscape"
   xmlns:sodipodi="http://sodipodi.sourceforge.net/DTD/sodipodi-0.dtd"
   xmlns="http://www.w3.org/2000/svg"
   xmlns:svg="http://www.w3.org/2000/svg"><defs
   id="defs85"><rect
   x="1445.0779"
   y="172.64204"
   width="554.15967"
   height="334.6272"
   id="rect88" /><rect
   x="370.86072"
   y="63.941502"
   width="1139.9137"
   height="103.70641"
   id="rect87" />
        
        
        
        
        
        
        
        
        
        
        
        
        
        
        
        
        
        
        
        
        
        
        
        
        
        
        
        
        
        
        
        
        
        
        
        
        
        
        
        
        
        
        
        
        
        
        
        
        
        
        
        
        
        
        
        
        
        
        
        
        
        
        
        
        
        
        
        
        
        
        
        
        
        
        
        
        
        
        
        
        
        
        
        
        
        
        
        
    <rect
   x="370.86072"
   y="63.941502"
   width="761.33742"
   height="65.362165"
   id="rect87-7" /><rect
   x="370.86072"
   y="63.941502"
   width="546.11011"
   height="69.042755"
   id="rect87-7-3" /><rect
   x="370.86072"
   y="63.941502"
   width="724.42871"
   height="81.766035"
   id="rect87-7-36" /></defs><sodipodi:namedview
   id="namedview85"
   pagecolor="#ffffff"
   bordercolor="#666666"
   borderopacity="1.0"
   inkscape:showpageshadow="2"
   inkscape:pageopacity="0.0"
   inkscape:pagecheckerboard="0"
   inkscape:deskcolor="#d1d1d1"
   inkscape:zoom="0.66351909"
   inkscape:cx="314.98717"
   inkscape:cy="-108.51233"
   inkscape:window-width="1189"
   inkscape:window-height="755"
   inkscape:window-x="2157"
   inkscape:window-y="179"
   inkscape:window-maximized="0"
   inkscape:current-layer="svg85"
   inkscape:export-bgcolor="#ffffffff"
   inkscape:document-units="in" />
    <path
   d="M 779.17598,30.891929 H 522.57112 c -12.91772,0 -23.38786,10.469776 -23.38786,23.385281 v 256.5707 c 0,12.91403 10.47014,23.38417 23.38786,23.38417 h 256.60486 c 12.92138,0 23.39153,-10.47014 23.39153,-23.38417 V 54.27721 c 0,-12.915505 -10.47015,-23.385281 -23.39153,-23.385281 z"
   style="fill:none;fill-rule:nonzero;stroke:#010101;stroke-width:1.47px"
   id="path1" /><path
   d="M 776.95994,46.620664 H 524.77612 c -5.45372,0 -9.86375,4.424362 -9.86375,9.875525 V 233.31336 c 0,6.97703 5.64483,12.63584 12.62369,12.63584 h 50.06486 c 5.45374,0 9.87847,4.41076 9.87847,9.87551 v 50.05787 c 0,6.97667 5.65952,12.62188 12.63473,12.62188 h 176.84582 c 5.45006,0 9.87479,-4.41077 9.87479,-9.87589 V 56.496189 c 0,-5.451163 -4.42473,-9.875525 -9.87479,-9.875525 z"
   style="fill:none;fill-rule:nonzero;stroke:#010101;stroke-width:1.47px"
   id="path2" /><rect
   x="208.31613"
   y="335.83804"
   width="12.20108"
   height="6.4202671"
   style="fill:none;fill-rule:nonzero;stroke:#010101;stroke-width:1.47px"
   id="rect2" /><rect
   x="244.91563"
   y="298.60272"
   width="6.739994"
   height="12.518969"
   style="fill:none;fill-rule:nonzero;stroke:#010101;stroke-width:1.47px"
   id="rect3" /><rect
   x="482.48761"
   y="298.60272"
   width="10.595093"
   height="12.518969"
   style="fill:none;fill-rule:nonzero;stroke:#010101;stroke-width:1.47px"
   id="rect4" /><rect
   x="244.91563"
   y="459.42175"
   width="6.739994"
   height="12.517132"
   style="fill:none;fill-rule:nonzero;stroke:#010101;stroke-width:1.47px"
   id="rect5" /><rect
   x="482.48761"
   y="459.42175"
   width="6.4202671"
   height="12.517132"
   style="fill:none;fill-rule:nonzero;stroke:#010101;stroke-width:1.47px"
   id="rect6" /><rect
   x="244.91563"
   y="621.8468"
   width="6.739994"
   height="12.517132"
   style="fill:none;fill-rule:nonzero;stroke:#010101;stroke-width:1.47px"
   id="rect7" /><rect
   x="482.48761"
   y="621.8468"
   width="6.4202671"
   height="12.517132"
   style="fill:none;fill-rule:nonzero;stroke:#010101;stroke-width:1.47px"
   id="rect8" /><rect
   x="718.45355"
   y="459.42175"
   width="6.743669"
   height="12.517132"
   style="fill:none;fill-rule:nonzero;stroke:#010101;stroke-width:1.47px"
   id="rect9" /><rect
   x="718.45355"
   y="621.8468"
   width="6.743669"
   height="12.517132"
   style="fill:none;fill-rule:nonzero;stroke:#010101;stroke-width:1.47px"
   id="rect10" /><rect
   x="208.31613"
   y="497.93967"
   width="12.20108"
   height="6.743669"
   style="fill:none;fill-rule:nonzero;stroke:#010101;stroke-width:1.47px"
   id="rect11" /><rect
   x="208.31613"
   y="660.36475"
   width="12.20108"
   height="6.4202671"
   style="fill:none;fill-rule:nonzero;stroke:#010101;stroke-width:1.47px"
   id="rect12" /><rect
   x="445.56836"
   y="335.83804"
   width="12.197403"
   height="6.4202671"
   style="fill:none;fill-rule:nonzero;stroke:#010101;stroke-width:1.47px"
   id="rect13" /><rect
   x="445.56836"
   y="497.93967"
   width="12.197403"
   height="6.743669"
   style="fill:none;fill-rule:nonzero;stroke:#010101;stroke-width:1.47px"
   id="rect14" /><rect
   x="445.56836"
   y="660.36475"
   width="12.197403"
   height="6.4202671"
   style="fill:none;fill-rule:nonzero;stroke:#010101;stroke-width:1.47px"
   id="rect15" /><rect
   x="682.81677"
   y="497.93967"
   width="12.520807"
   height="6.743669"
   style="fill:none;fill-rule:nonzero;stroke:#010101;stroke-width:1.47px"
   id="rect16" /><rect
   x="682.81677"
   y="660.36475"
   width="12.520807"
   height="6.4202671"
   style="fill:none;fill-rule:nonzero;stroke:#010101;stroke-width:1.47px"
   id="rect17" /><rect
   x="244.91563"
   y="784.26819"
   width="6.739994"
   height="12.520807"
   style="fill:none;fill-rule:nonzero;stroke:#010101;stroke-width:1.47px"
   id="rect18" /><rect
   x="482.48761"
   y="784.26819"
   width="6.4202671"
   height="12.520807"
   style="fill:none;fill-rule:nonzero;stroke:#010101;stroke-width:1.47px"
   id="rect19" /><rect
   x="718.45355"
   y="784.26819"
   width="6.743669"
   height="12.520807"
   style="fill:none;fill-rule:nonzero;stroke:#010101;stroke-width:1.47px"
   id="rect20" /><rect
   x="208.31613"
   y="822.78979"
   width="12.20108"
   height="6.4202671"
   style="fill:none;fill-rule:nonzero;stroke:#010101;stroke-width:1.47px"
   id="rect21" /><rect
   x="445.56836"
   y="822.78979"
   width="12.197403"
   height="6.4202671"
   style="fill:none;fill-rule:nonzero;stroke:#010101;stroke-width:1.47px"
   id="rect22" /><rect
   x="682.81677"
   y="822.78979"
   width="12.520807"
   height="6.4202671"
   style="fill:none;fill-rule:nonzero;stroke:#010101;stroke-width:1.47px"
   id="rect23" /><path
   d="m 127.96909,716.79105 c 0.4851,-0.16904 1.06944,-0.2499 1.55454,-0.2499 h 14.15251 c 0.4851,0 0.81954,0.31973 0.81954,0.81954 v 39.92177 c 0,0.33444 0.16537,0.48878 0.48509,0.48878 h 7.61834 c 0.48509,0 0.81952,0.33443 0.81952,0.82321 v 12.97652 c 0,0.48876 -0.33443,0.8232 -0.81952,0.8232 H 117.4916 c -0.48511,0 -0.81586,-0.33444 -0.81586,-0.8232 v -12.97652 c 0,-0.48878 0.33075,-0.82321 0.81586,-0.82321 h 9.40807 c 0.31971,0 0.48509,-0.16537 0.48509,-0.48878 v -25.38338 c -0.0808,-0.24991 -0.24623,-0.41896 -0.48509,-0.41896 l -10.22393,2.46595 c -0.48878,0 -0.81953,-0.33443 -0.81953,-0.82321 v -12.72661 c 0,-0.4851 0.16538,-0.90406 0.81953,-1.0731 l 11.29335,-2.5468 z"
   style="fill:#ff0000;fill-rule:nonzero;stroke:#010101;stroke-width:1.47px;stroke-miterlimit:4"
   id="path23" /><path
   d="m 355.6111,731.20817 -0.56963,-12.60533 c 0,-0.4851 0.31973,-0.73501 0.81954,-0.81586 3.03924,-0.81953 11.46974,-1.88895 18.84184,-1.88895 11.30437,0 18.84185,1.63906 18.84185,14.07533 0,7.13323 -1.2348,9.91155 -7.77635,15.39468 -9.74617,8.1071 -12.03938,10.14674 -12.03938,11.63146 0,0.735 0.0845,0.81952 0.81953,0.81952 h 18.51109 c 0.48511,0 0.81953,0.33076 0.81953,0.81954 v 12.93607 c 0,0.4851 -0.33442,0.81954 -0.81953,0.81954 h -38.08795 c -0.65415,0 -1.22377,-0.16906 -1.22377,-0.81954 v -10.73107 c 0,-2.45491 0.16903,-3.52435 0.56962,-4.74812 0.90406,-2.53945 3.76322,-6.38353 8.59588,-10.56203 8.27615,-7.12219 11.78948,-10.23127 11.78948,-12.77071 0,-2.53944 -1.72359,-2.45491 -5.90209,-2.45491 -2.53945,0 -9.66531,1.06577 -12.37014,1.71991 -0.48877,0.0846 -0.81952,-0.33442 -0.81952,-0.81953 z"
   style="fill:#ff0000;fill-rule:nonzero;stroke:#010101;stroke-width:1.47px;stroke-miterlimit:4"
   id="path24" /><path
   d="m 615.21847,740.05763 c 0,0.2499 0.2499,0.33075 0.4851,0.33075 9.90051,0 14.14149,4.00945 14.14149,14.73317 0,14.65232 -9.40071,17.91208 -23.30333,17.91208 -4.5754,0 -10.22024,-0.65049 -15.04554,-1.55455 -0.4851,-0.0808 -0.81586,-0.33075 -0.81586,-0.81585 l 0.90038,-12.44731 c 0,-0.2499 0.33075,-0.4851 0.81586,-0.4851 2.78934,0.4851 8.18061,0.90405 11.05079,0.90405 5.64485,0 7.6808,-0.81953 7.6808,-4.99435 0,-3.52435 -2.53575,-3.85877 -13.49101,-3.85877 h -3.02087 c -0.48511,0 -0.81953,-0.15435 -0.81953,-0.48512 v -8.50399 c 0,-0.56964 0.0846,-0.90406 0.90406,-1.40386 9.24636,-5.81022 11.93648,-7.53381 11.93648,-8.34966 0,-0.33442 -0.33443,-0.41895 -0.56963,-0.41895 h -14.22235 c -0.48878,0 -0.735,-0.31606 -0.735,-0.81586 v -12.4473 c 0,-0.48511 0.33075,-0.81586 0.81586,-0.81586 h 35.97848 c 0.41527,0 0.81953,0.0808 0.81953,0.56595 v 12.69721 c 0,0.31605 0,0.81586 -0.81953,1.47001 -3.3553,2.6203 -6.46069,4.65994 -12.27091,8.26881 -0.33075,0.16538 -0.40058,0.24989 -0.40058,0.4851 z"
   style="fill:#ff0000;fill-rule:nonzero;stroke:#010101;stroke-width:1.47px;stroke-miterlimit:4"
   id="path25" /><path
   d="m 112.96764,592.38046 c 0,-3.66767 0.16538,-4.73341 9.74616,-35.8425 0.16906,-0.65048 0.56964,-0.81586 1.06944,-0.81586 h 14.49798 c 0.48509,0 0.90404,0.24624 0.90404,0.8967 -6.79145,19.60626 -10.15041,30.22708 -10.15041,31.69342 0,0.56595 0.2499,0.65048 0.58065,0.65048 h 5.48681 c 0.33442,0 0.4851,-0.16538 0.4851,-0.48511 v -12.73763 c 0,-0.4851 0.33443,-0.81586 0.81954,-0.81586 h 14.5825 c 0.48509,0 0.81952,0.33076 0.81952,0.81586 v 12.73763 c 0,0.33075 0.16538,0.48511 0.4851,0.48511 h 3.1936 c 0.4851,0 0.81954,0.33075 0.81954,0.81584 v 12.50244 c 0,0.4851 -0.33444,0.81586 -0.81954,0.81586 h -3.1936 c -0.33442,0 -0.4851,0.16905 -0.4851,0.4851 v 6.85392 c 0,0.4851 -0.33443,0.81586 -0.81952,0.81586 h -14.5825 c -0.48511,0 -0.81954,-0.33076 -0.81954,-0.81586 v -6.85392 c 0,-0.33075 -0.16537,-0.4851 -0.4851,-0.4851 H 113.7982 c -0.48511,0 -0.81952,-0.33076 -0.81952,-0.81586 v -9.88581 z"
   style="fill:#008000;fill-rule:nonzero;stroke:#010101;stroke-width:1.47px;stroke-miterlimit:4"
   id="path26" /><path
   d="m 373.51214,569.7166 c -0.56962,0 -0.73868,0.16537 -0.81953,0.6468 l -0.33443,5.21853 c 0,0.40058 0.16538,0.6468 0.4851,0.6468 13.51675,0 19.75325,2.52843 19.75325,15.22564 0,17.66583 -9.83436,20.44047 -24.16695,20.44047 -4.75181,0 -11.30805,-0.73132 -14.58617,-1.3818 -0.33074,-0.0808 -0.41527,-0.24623 -0.41527,-0.73134 l 0.81953,-12.86259 c 0,-0.24622 0.33442,-0.58064 0.735,-0.41526 2.70849,0.65047 8.59956,0.98123 11.63881,0.98123 4.91718,0 7.12586,-0.56597 7.12586,-4.07193 0,-3.90655 -0.98491,-4.55336 -11.80417,-4.55336 h -5.57135 c -0.90405,0 -1.72358,-0.48511 -1.72358,-1.46265 l 0.90406,-30.61295 c 0,-0.89671 0.16537,-1.06209 0.90405,-1.06209 h 33.50152 c 0.48511,0 0.81586,0.33076 0.81586,0.81218 v 12.38115 c 0,0.48144 -0.33075,0.81586 -0.81586,0.81586 h -16.47513 z"
   style="fill:#008000;fill-rule:nonzero;stroke:#010101;stroke-width:1.47px;stroke-miterlimit:4"
   id="path27" /><path
   d="m 612.521,573.86938 c -0.0808,0.16537 -0.16538,0.48509 -0.16538,0.73132 0,0.33075 0.0846,0.58066 0.65415,0.58066 2.06537,-0.33076 3.37736,-0.33076 4.45046,-0.33076 11.02139,0 13.99082,5.86534 13.99082,18.31632 0,16.11866 -8.63263,18.72792 -20.49195,18.72792 -15.13373,0 -21.88476,-3.58682 -21.88476,-18.81245 0,-12.78173 1.56189,-20.19058 15.46818,-36.54811 0.588,-0.6468 0.99226,-0.81218 1.98084,-0.81218 h 17.61806 c 1.07312,0 1.15764,0.24624 1.15764,1.29729 0,0.64681 -6.33207,6.91272 -12.76336,16.84999 z m -2.55047,12.13124 c -3.37735,0 -4.0315,0.81586 -4.0315,6.19977 0,5.38024 0.98858,6.26592 4.0315,6.26592 3.20829,0 4.19688,-0.65048 4.19688,-6.26592 0,-5.61911 -1.07311,-6.19977 -4.19688,-6.19977 z"
   style="fill:#008000;fill-rule:nonzero;stroke:#010101;stroke-width:1.47px;stroke-miterlimit:4"
   id="path28" /><path
   d="m 141.7247,431.23435 c -1.8816,5.54927 -2.19766,9.6359 -2.19766,15.01982 0,0.9702 -0.33442,0.9702 -0.90038,0.9702 H 121.6554 c -0.65048,0 -1.23114,-0.15435 -1.23114,-0.81586 v -2.28586 c 0,-19.52173 13.95775,-31.52436 13.95775,-36.5922 0,-0.33077 -0.16537,-0.48511 -0.4851,-0.48511 h -18.1877 c -0.48511,0 -0.81585,-0.33075 -0.81585,-0.81586 v -13.72255 c 0,-0.48141 0.33074,-0.81584 0.81585,-0.81584 h 37.85642 c 0.48143,0 0.81586,0.33443 0.81586,0.81584 v 10.13573 c 0,0.4851 -0.0845,1.38548 -0.48511,2.45124 -4.64523,11.35215 -8.72818,15.83936 -12.15697,26.12574 z"
   style="fill:#00ffff;fill-rule:nonzero;stroke:#010101;stroke-width:1.47px;stroke-miterlimit:4"
   id="path29" /><path
   d="m 352.71886,404.43974 c 0,-10.91482 8.23205,-13.71151 20.29348,-13.71151 12.05775,0 20.29348,2.79669 20.29348,13.71151 0,6.48643 -1.29729,9.93727 -7.33535,12.63841 -0.0846,0 -0.40058,0.2499 -0.40058,0.73868 0,0.41528 0.33076,0.56963 0.48144,0.65416 7.33534,3.45084 8.47092,7.55585 8.47092,14.44651 0,12.23415 -9.2831,15.26973 -21.50991,15.26973 -12.22681,0 -21.50992,-3.03558 -21.50992,-15.26973 0,-6.89066 1.21644,-10.99567 8.46725,-14.04594 0.16538,-0.0808 0.48512,-0.2499 0.48512,-0.65415 0,-0.4851 -0.33444,-0.735 -0.40059,-0.735 -6.03806,-2.71584 -7.33534,-6.40558 -7.33534,-13.05736 z m 20.20895,19.86351 c -3.34427,0 -4.55704,2.37773 -4.55704,5.74773 0,4.10501 1.29729,4.75916 4.64157,4.75916 3.3406,0 4.7224,-0.73867 4.7224,-4.75916 0,-3.37 -1.29728,-5.74773 -4.80693,-5.74773 z m 0.0846,-21.50624 c -3.25974,0 -4.40635,0.56963 -4.40635,4.75916 0,3.20094 0.73132,5.74774 4.24097,5.74774 3.50598,0 4.32184,-2.5468 4.32184,-5.74774 0,-4.10501 -1.06209,-4.75916 -4.15646,-4.75916 z"
   style="fill:#00ffff;fill-rule:nonzero;stroke:#010101;stroke-width:1.47px;stroke-miterlimit:4"
   id="path30" /><path
   d="m 104.21373,229.51668 c 0.48511,-0.1661 1.06577,-0.24915 1.55086,-0.24915 h 14.1562 c 0.4851,0 0.81585,0.31825 0.81585,0.81696 v 39.69355 c 0,0.33223 0.16906,0.48438 0.48879,0.48438 h 7.61464 c 0.48878,0 0.81954,0.33258 0.81954,0.81696 v 12.90373 c 0,0.48437 -0.33076,0.81659 -0.81954,0.81659 H 93.736242 c -0.485108,0 -0.81953,-0.33222 -0.81953,-0.81659 v -12.90373 c 0,-0.48438 0.334422,-0.81696 0.81953,-0.81696 h 9.408068 c 0.31972,0 0.4851,-0.16612 0.4851,-0.48438 v -25.23933 c -0.0845,-0.24953 -0.2499,-0.41563 -0.4851,-0.41563 l -10.227598,2.45086 c -0.485108,0 -0.81953,-0.33258 -0.81953,-0.81696 v -12.65457 c 0,-0.48437 0.169054,-0.89964 0.81953,-1.06576 l 11.297018,-2.53392 z"
   style="fill:#0000ff;fill-rule:nonzero;stroke:#010101;stroke-width:1.47px;stroke-miterlimit:4"
   id="path31" /><path
   d="m 172.03262,282.39624 c -3.84774,2.54569 -6.72529,3.36669 -13.52041,3.36669 -6.79512,0 -9.58813,-0.821 -13.43588,-3.36669 -6.06011,-4.02084 -8.03361,-16.75076 -8.03361,-25.36244 0,-8.61168 1.9735,-21.34161 8.03361,-25.36245 3.84775,-2.54605 6.7253,-3.36668 13.43588,-3.36668 6.7106,0 9.67267,0.82063 13.52041,3.36668 6.07115,4.02084 8.02993,16.66698 8.02993,25.36245 0,8.6951 -1.95878,21.3416 -8.02993,25.36244 z m -15.81361,-11.4918 c 0.65414,1.22416 1.06942,1.39136 2.2932,1.39136 1.30832,0 1.88897,-0.25064 2.37774,-1.39136 0.90039,-2.04514 1.63906,-8.69511 1.63906,-13.87064 0,-5.17554 -0.65415,-11.89532 -1.63906,-13.95407 -0.56962,-1.22451 -1.06942,-1.39136 -2.37774,-1.39136 -1.2348,0 -1.80444,0.25026 -2.2932,1.39136 -0.90039,1.8919 -1.63906,8.69512 -1.63906,13.95407 0,5.25895 0.73867,11.97837 1.63906,13.87064 z"
   style="fill:#0000ff;fill-rule:nonzero;stroke:#010101;stroke-width:1.47px;stroke-miterlimit:4"
   id="path32" /><path
   d="m 342.42512,229.51668 c 0.48509,-0.1661 1.06942,-0.24915 1.55454,-0.24915 h 14.1525 c 0.48878,0 0.81953,0.31825 0.81953,0.81696 v 39.69355 c 0,0.33223 0.16906,0.48438 0.48511,0.48438 h 7.61831 c 0.48512,0 0.81954,0.33258 0.81954,0.81696 v 12.90373 c 0,0.48437 -0.33442,0.81659 -0.81954,0.81659 h -35.10382 c -0.4851,0 -0.81952,-0.33222 -0.81952,-0.81659 v -12.90373 c 0,-0.48438 0.33442,-0.81696 0.81952,-0.81696 h 9.40806 c 0.31606,0 0.48511,-0.16612 0.48511,-0.48438 v -25.23933 c -0.0846,-0.24953 -0.24991,-0.41563 -0.48511,-0.41563 l -10.22758,2.45086 c -0.48511,0 -0.81954,-0.33258 -0.81954,-0.81696 v -12.65457 c 0,-0.48437 0.16538,-0.89964 0.81954,-1.06576 l 11.29335,-2.53392 z"
   style="fill:#0000ff;fill-rule:nonzero;stroke:#010101;stroke-width:1.47px;stroke-miterlimit:4"
   id="path33" /><path
   d="m 390.2629,229.51668 c 0.4851,-0.1661 1.06575,-0.24915 1.55454,-0.24915 h 14.1525 c 0.48511,0 0.81954,0.31825 0.81954,0.81696 v 39.69355 c 0,0.33223 0.16538,0.48438 0.48511,0.48438 h 7.61832 c 0.4851,0 0.81586,0.33258 0.81586,0.81696 v 12.90373 c 0,0.48437 -0.33076,0.81659 -0.81586,0.81659 H 379.7854 c -0.4851,0 -0.81952,-0.33222 -0.81952,-0.81659 v -12.90373 c 0,-0.48438 0.33442,-0.81696 0.81952,-0.81696 h 9.40807 c 0.31972,0 0.48511,-0.16612 0.48511,-0.48438 v -25.23933 c -0.0845,-0.24953 -0.24991,-0.41563 -0.48511,-0.41563 l -10.22759,2.45086 c -0.48511,0 -0.81954,-0.33258 -0.81954,-0.81696 v -12.65457 c 0,-0.48437 0.16906,-0.89964 0.81954,-1.06576 l 11.29702,-2.53392 z"
   style="fill:#0000ff;fill-rule:nonzero;stroke:#010101;stroke-width:1.47px;stroke-miterlimit:4"
   id="path34" /><path
   d="m 607.86107,428.95583 c 0.0808,-0.16538 0.16537,-0.48511 0.16537,-0.73501 0,-0.31972 -0.0846,-0.56963 -0.65048,-0.56963 -2.05066,0.33443 -3.35162,0.33443 -4.41738,0.33443 -10.93687,0 -13.88424,-5.89841 -13.88424,-18.41922 0,-16.21421 8.57015,-18.83817 20.3339,-18.83817 15.02351,0 21.72308,3.59417 21.72308,18.91902 0,12.85523 -1.55086,20.30819 -15.35425,36.75759 -0.58066,0.65416 -0.98123,0.81953 -1.96614,0.81953 h -17.4821 c -1.06574,0 -1.15027,-0.24989 -1.15027,-1.30463 0,-0.65415 6.2843,-6.95683 12.6678,-16.94922 z m 2.53209,-12.2856 c 3.34794,0 4.00211,-0.81586 4.00211,-6.22917 0,-5.41699 -0.98492,-6.22182 -4.00211,-6.22182 -3.18624,0 -3.91758,0.56963 -3.91758,6.22182 0,5.64851 0.81586,6.22917 3.91758,6.22917 z"
   style="fill:#00ffff;fill-rule:nonzero;stroke:#010101;stroke-width:1.47px;stroke-miterlimit:4"
   id="path35" /><rect
   x="32.061954"
   y="176.30309"
   width="204.18433"
   height="10.271692"
   style="fill:none;fill-rule:nonzero;stroke:#010101;stroke-width:1.47px"
   id="rect35" /><rect
   x="268.99438"
   y="176.30309"
   width="204.18433"
   height="10.271692"
   style="fill:none;fill-rule:nonzero;stroke:#010101;stroke-width:1.47px"
   id="rect36" /><rect
   x="247.48456"
   y="198.13087"
   width="10.595093"
   height="98.224937"
   style="fill:none;fill-rule:nonzero;stroke:#010101;stroke-width:1.47px"
   id="rect37" /><rect
   x="10.232349"
   y="198.13087"
   width="10.271692"
   height="128.07863"
   style="fill:none;fill-rule:nonzero;stroke:#010101;stroke-width:1.47px"
   id="rect38" /><rect
   x="32.061954"
   y="337.76379"
   width="174.00505"
   height="10.271692"
   style="fill:none;fill-rule:nonzero;stroke:#010101;stroke-width:1.47px"
   id="rect39" /><rect
   x="269.31415"
   y="337.76379"
   width="174.00505"
   height="10.271692"
   style="fill:none;fill-rule:nonzero;stroke:#010101;stroke-width:1.47px"
   id="rect40" /><rect
   x="222.76268"
   y="337.76379"
   width="12.840534"
   height="10.271692"
   style="fill:none;fill-rule:nonzero;stroke:#010101;stroke-width:1.47px"
   id="rect41" /><rect
   x="247.48456"
   y="313.36859"
   width="10.595093"
   height="12.840902"
   style="fill:none;fill-rule:nonzero;stroke:#010101;stroke-width:1.47px"
   id="rect42" /><rect
   x="484.733"
   y="198.13087"
   width="9.3125105"
   height="98.224937"
   style="fill:none;fill-rule:nonzero;stroke:#010101;stroke-width:1.47px"
   id="rect43" /><rect
   x="10.232349"
   y="360.23285"
   width="10.271692"
   height="127.75854"
   style="fill:none;fill-rule:nonzero;stroke:#010101;stroke-width:1.47px"
   id="rect44" /><rect
   x="506.88617"
   y="338.40689"
   width="204.18433"
   height="9.6285629"
   style="fill:none;fill-rule:nonzero;stroke:#010101;stroke-width:1.47px"
   id="rect45" /><rect
   x="247.48456"
   y="359.27002"
   width="10.595093"
   height="98.226044"
   style="fill:none;fill-rule:nonzero;stroke:#010101;stroke-width:1.47px"
   id="rect46" /><rect
   x="484.733"
   y="359.27002"
   width="10.595093"
   height="98.226044"
   style="fill:none;fill-rule:nonzero;stroke:#010101;stroke-width:1.47px"
   id="rect47" /><rect
   x="484.733"
   y="313.36859"
   width="9.3125105"
   height="12.840902"
   style="fill:none;fill-rule:nonzero;stroke:#010101;stroke-width:1.47px"
   id="rect48" /><rect
   x="460.01489"
   y="337.76379"
   width="12.840534"
   height="10.271692"
   style="fill:none;fill-rule:nonzero;stroke:#010101;stroke-width:1.47px"
   id="rect49" /><rect
   x="484.733"
   y="474.18796"
   width="10.595093"
   height="12.840534"
   style="fill:none;fill-rule:nonzero;stroke:#010101;stroke-width:1.47px"
   id="rect50" /><rect
   x="247.48456"
   y="474.18796"
   width="10.595093"
   height="12.840534"
   style="fill:none;fill-rule:nonzero;stroke:#010101;stroke-width:1.47px"
   id="rect51" /><rect
   x="721.02234"
   y="359.27002"
   width="10.595093"
   height="98.226044"
   style="fill:none;fill-rule:nonzero;stroke:#010101;stroke-width:1.47px"
   id="rect52" /><rect
   x="721.02234"
   y="474.18796"
   width="10.595093"
   height="12.840534"
   style="fill:none;fill-rule:nonzero;stroke:#010101;stroke-width:1.47px"
   id="rect53" /><rect
   x="506.88617"
   y="500.18878"
   width="174.00505"
   height="10.271692"
   style="fill:none;fill-rule:nonzero;stroke:#010101;stroke-width:1.47px"
   id="rect54" /><rect
   x="697.58667"
   y="500.18878"
   width="12.840534"
   height="10.271692"
   style="fill:none;fill-rule:nonzero;stroke:#010101;stroke-width:1.47px"
   id="rect55" /><rect
   x="269.31415"
   y="500.18878"
   width="174.00505"
   height="10.271692"
   style="fill:none;fill-rule:nonzero;stroke:#010101;stroke-width:1.47px"
   id="rect56" /><rect
   x="460.01489"
   y="500.18878"
   width="12.840534"
   height="10.271692"
   style="fill:none;fill-rule:nonzero;stroke:#010101;stroke-width:1.47px"
   id="rect57" /><rect
   x="222.76268"
   y="500.18878"
   width="12.840534"
   height="10.271692"
   style="fill:none;fill-rule:nonzero;stroke:#010101;stroke-width:1.47px"
   id="rect58" /><rect
   x="32.061954"
   y="500.18878"
   width="174.00505"
   height="10.271692"
   style="fill:none;fill-rule:nonzero;stroke:#010101;stroke-width:1.47px"
   id="rect59" /><rect
   x="10.232349"
   y="522.01477"
   width="10.271692"
   height="128.07825"
   style="fill:none;fill-rule:nonzero;stroke:#010101;stroke-width:1.47px"
   id="rect60" /><rect
   x="247.48456"
   y="521.37531"
   width="10.595093"
   height="98.222366"
   style="fill:none;fill-rule:nonzero;stroke:#010101;stroke-width:1.47px"
   id="rect61" /><rect
   x="484.733"
   y="521.37531"
   width="10.595093"
   height="98.222366"
   style="fill:none;fill-rule:nonzero;stroke:#010101;stroke-width:1.47px"
   id="rect62" /><rect
   x="721.02234"
   y="521.37531"
   width="10.595093"
   height="98.222366"
   style="fill:none;fill-rule:nonzero;stroke:#010101;stroke-width:1.47px"
   id="rect63" /><rect
   x="484.733"
   y="636.61304"
   width="10.595093"
   height="12.83686"
   style="fill:none;fill-rule:nonzero;stroke:#010101;stroke-width:1.47px"
   id="rect64" /><rect
   x="721.02234"
   y="636.61304"
   width="10.595093"
   height="12.83686"
   style="fill:none;fill-rule:nonzero;stroke:#010101;stroke-width:1.47px"
   id="rect65" /><rect
   x="247.48456"
   y="636.61304"
   width="10.595093"
   height="12.83686"
   style="fill:none;fill-rule:nonzero;stroke:#010101;stroke-width:1.47px"
   id="rect66" /><rect
   x="721.02234"
   y="684.12006"
   width="10.595093"
   height="98.222366"
   style="fill:none;fill-rule:nonzero;stroke:#010101;stroke-width:1.47px"
   id="rect67" /><rect
   x="721.02234"
   y="799.03442"
   width="10.595093"
   height="12.840534"
   style="fill:none;fill-rule:nonzero;stroke:#010101;stroke-width:1.47px"
   id="rect68" /><rect
   x="506.88617"
   y="662.29047"
   width="174.00505"
   height="10.595093"
   style="fill:none;fill-rule:nonzero;stroke:#010101;stroke-width:1.47px"
   id="rect69" /><rect
   x="697.58667"
   y="662.29047"
   width="12.840534"
   height="10.595093"
   style="fill:none;fill-rule:nonzero;stroke:#010101;stroke-width:1.47px"
   id="rect70" /><rect
   x="506.88617"
   y="824.71558"
   width="174.00505"
   height="10.271692"
   style="fill:none;fill-rule:nonzero;stroke:#010101;stroke-width:1.47px"
   id="rect71" /><rect
   x="697.58667"
   y="824.71558"
   width="12.840534"
   height="10.271692"
   style="fill:none;fill-rule:nonzero;stroke:#010101;stroke-width:1.47px"
   id="rect72" /><rect
   x="10.232349"
   y="683.79675"
   width="10.271692"
   height="128.07825"
   style="fill:none;fill-rule:nonzero;stroke:#010101;stroke-width:1.47px"
   id="rect73" /><rect
   x="247.48456"
   y="684.12006"
   width="10.595093"
   height="98.222366"
   style="fill:none;fill-rule:nonzero;stroke:#010101;stroke-width:1.47px"
   id="rect74" /><rect
   x="247.48456"
   y="799.03442"
   width="10.595093"
   height="12.840534"
   style="fill:none;fill-rule:nonzero;stroke:#010101;stroke-width:1.47px"
   id="rect75" /><rect
   x="484.733"
   y="684.12006"
   width="10.595093"
   height="98.222366"
   style="fill:none;fill-rule:nonzero;stroke:#010101;stroke-width:1.47px"
   id="rect76" /><rect
   x="484.733"
   y="799.03442"
   width="10.595093"
   height="12.840534"
   style="fill:none;fill-rule:nonzero;stroke:#010101;stroke-width:1.47px"
   id="rect77" /><rect
   x="32.061954"
   y="662.29047"
   width="174.00505"
   height="10.595093"
   style="fill:none;fill-rule:nonzero;stroke:#010101;stroke-width:1.47px"
   id="rect78" /><rect
   x="222.76268"
   y="662.29047"
   width="12.840534"
   height="10.595093"
   style="fill:none;fill-rule:nonzero;stroke:#010101;stroke-width:1.47px"
   id="rect79" /><rect
   x="32.061954"
   y="824.71558"
   width="174.00505"
   height="10.271692"
   style="fill:none;fill-rule:nonzero;stroke:#010101;stroke-width:1.47px"
   id="rect80" /><rect
   x="222.76268"
   y="824.71558"
   width="12.840534"
   height="10.271692"
   style="fill:none;fill-rule:nonzero;stroke:#010101;stroke-width:1.47px"
   id="rect81" /><rect
   x="269.31415"
   y="662.29047"
   width="174.00505"
   height="10.595093"
   style="fill:none;fill-rule:nonzero;stroke:#010101;stroke-width:1.47px"
   id="rect82" /><rect
   x="460.01489"
   y="662.29047"
   width="12.840534"
   height="10.595093"
   style="fill:none;fill-rule:nonzero;stroke:#010101;stroke-width:1.47px"
   id="rect83" /><rect
   x="269.31415"
   y="824.71558"
   width="174.00505"
   height="10.271692"
   style="fill:none;fill-rule:nonzero;stroke:#010101;stroke-width:1.47px"
   id="rect84" /><rect
   x="460.01489"
   y="824.71558"
   width="12.840534"
   height="10.271692"
   style="fill:none;fill-rule:nonzero;stroke:#010101;stroke-width:1.47px"
   id="rect85" />
<rect
   style="opacity:1;fill:#ff0000;fill-rule:evenodd;stroke:#1a1a1a;stroke-width:1.29782"
   id="rect86"
   width="33.154667"
   height="33.154667"
   x="25.396547"
   y="-52.528297"
   ry="0"
   transform="scale(1,-1)" /><rect
   style="clip-rule:evenodd;fill:#00ffff;fill-rule:evenodd;stroke:#1a1a1a;stroke-width:1.29782;stroke-miterlimit:10"
   id="rect86-6"
   width="33.154667"
   height="33.154667"
   x="200.39276"
   y="-100.48287"
   ry="0"
   transform="scale(1,-1)" /><rect
   style="clip-rule:evenodd;fill:#0000ff;fill-rule:evenodd;stroke:#1a1a1a;stroke-width:1.29782;stroke-miterlimit:10"
   id="rect86-6-3"
   width="33.154667"
   height="33.154667"
   x="200.67738"
   y="-151.77512"
   ry="0"
   transform="scale(1,-1)" /><text
   xml:space="preserve"
   id="text86"
   style="font-size:53.3333px;line-height:1.25;font-family:sans-serif;white-space:pre;shape-inside:url(#rect87);display:inline"
   transform="matrix(0.36750239,0,0,0.36750239,-58.74411,1.3043355)"><tspan
     x="370.86133"
     y="111.12888"
     id="tspan2">One or more positions with 96-well plates</tspan></text><text
   xml:space="preserve"
   id="text86-5"
   style="font-size:53.3333px;line-height:1.25;font-family:sans-serif;white-space:pre;shape-inside:url(#rect87-7);clip-rule:evenodd;display:inline;fill-rule:evenodd;stroke-miterlimit:10"
   transform="matrix(0.36750239,0,0,0.36750239,108.16025,52.041614)"><tspan
     x="370.86133"
     y="111.12888"
     id="tspan3">20 ul OT2 filter tip boxes</tspan></text><text
   xml:space="preserve"
   id="text86-5-75"
   style="font-size:53.3333px;line-height:1.25;font-family:sans-serif;white-space:pre;shape-inside:url(#rect87-7-36);clip-rule:evenodd;display:inline;fill-rule:evenodd;stroke-miterlimit:10"
   transform="matrix(0.36750239,0,0,0.36750239,102.99641,101.67234)"><tspan
     x="370.86133"
     y="111.12888"
     id="tspan4">200 ul OT2 filter tip boxes</tspan></text><rect
   style="clip-rule:evenodd;fill:#008000;fill-rule:evenodd;stroke:#1a1a1a;stroke-width:1.29782;stroke-miterlimit:10"
   id="rect86-6-6"
   width="33.154667"
   height="33.154667"
   x="24.827763"
   y="-101.77765"
   ry="0"
   transform="scale(1,-1)" /><text
   xml:space="preserve"
   id="text86-5-7"
   style="font-size:53.3333px;line-height:1.25;font-family:sans-serif;white-space:pre;shape-inside:url(#rect87-7-3);clip-rule:evenodd;display:inline;fill-rule:evenodd;stroke-miterlimit:10"
   transform="matrix(0.36750239,0,0,0.36750239,-55.347837,51.829248)"><tspan
     x="370.86133"
     y="111.12888"
     id="tspan5">Agar trays</tspan></text><text
   xml:space="preserve"
   id="text87"
   style="font-size:120px;line-height:1.25;font-family:sans-serif;white-space:pre;shape-inside:url(#rect88);display:inline"
   transform="matrix(0.36750239,0,0,0.36750239,63.158764,74.418884)"><tspan
     x="1445.0781"
     y="278.81445"
     id="tspan6">Trash</tspan></text></svg>
